<svg width="95" height="81" viewBox="0 0 95 81" fill="none" xmlns="http://www.w3.org/2000/svg">
<path d="M88.6571 38.0057H30.9612H10.0216C-1.91605 36.8672 -0.753187 26.9599 1.32045 22.1485C9.06202 5.03897 25.3638 10.1675 32.547 14.8704C37.4912 3.22553 47.2928 0.504057 51.5756 0.598931C62.7651 0.371238 69.005 10.0184 70.7263 14.8704C74.8329 9.66599 81.3791 10.3979 82.3142 11.2111C87.2584 13.8783 87.2205 20.888 86.5835 24.0595C90.6494 23.7993 90.3919 27.5291 89.7549 29.4265C93.8209 29.0362 94.9458 32.2185 95 33.8584C94.2519 37.7617 90.4597 38.2496 88.6571 38.0057Z" fill="url(#paint0_linear_3_8)"/>
<path d="M41.8474 26.6931H36.9834L36.0874 29.1731H34.5514L38.5834 18.0851H40.2634L44.2794 29.1731H42.7434L41.8474 26.6931ZM41.4314 25.5091L39.4154 19.8771L37.3994 25.5091H41.4314ZM53.4927 21.2851C53.4927 22.2131 53.1727 22.9865 52.5327 23.6051C51.9034 24.2131 50.938 24.5171 49.6367 24.5171H47.4927V29.1731H46.0367V18.0211H49.6367C50.8954 18.0211 51.85 18.3251 52.5007 18.9331C53.162 19.5411 53.4927 20.3251 53.4927 21.2851ZM49.6367 23.3171C50.4474 23.3171 51.0447 23.1411 51.4287 22.7891C51.8127 22.4371 52.0047 21.9358 52.0047 21.2851C52.0047 19.9091 51.2154 19.2211 49.6367 19.2211H47.4927V23.3171H49.6367ZM56.7583 18.0211V29.1731H55.3023V18.0211H56.7583Z" fill="black"/>
<mask id="mask0_3_8" style="mask-type:alpha" maskUnits="userSpaceOnUse" x="9" y="41" width="77" height="40">
<rect x="9.64844" y="41.7904" width="75.7031" height="38.5938" fill="#D9D9D9"/>
</mask>
<g mask="url(#mask0_3_8)">
<circle cx="48.2422" cy="41.0482" r="24.9141" stroke="url(#paint1_linear_3_8)" stroke-width="14"/>
</g>
<defs>
<linearGradient id="paint0_linear_3_8" x1="3.52528e-08" y1="19.3961" x2="95" y2="19.3961" gradientUnits="userSpaceOnUse">
<stop stop-color="white"/>
<stop offset="0.270833" stop-color="#FFCFB4"/>
<stop offset="0.651042" stop-color="#E5BBFF"/>
<stop offset="0.885417" stop-color="#BCC3FF"/>
<stop offset="1" stop-color="#BDEFFF"/>
</linearGradient>
<linearGradient id="paint1_linear_3_8" x1="16.3281" y1="41.0822" x2="80.1562" y2="41.0822" gradientUnits="userSpaceOnUse">
<stop stop-color="white"/>
<stop offset="0.25" stop-color="#FFCFB4"/>
<stop offset="0.692708" stop-color="#E5BBFF"/>
<stop offset="0.864583" stop-color="#BCC3FF"/>
<stop offset="1" stop-color="#BDEFFF"/>
</linearGradient>
</defs>
</svg>
